<svg width="34" height="34" viewBox="0 0 34 34" fill="none" xmlns="http://www.w3.org/2000/svg">
<g clip-path="url(#clip0_284_527)">
<path d="M16.6361 9.52967C17.6964 8.66077 19.0419 8.21709 20.4111 8.28485C21.7803 8.35262 23.0754 8.92698 24.0448 9.89634C25.0141 10.8657 25.5885 12.1608 25.6563 13.53C25.724 14.8992 25.2803 16.2447 24.4114 17.305L22.5871 19.5338C22.4761 19.6703 22.4202 19.7375 22.3672 19.806C21.6324 20.7445 21.1166 21.8353 20.8575 22.9986L20.7875 23.3402L20.4828 24.8626C20.2049 26.2535 20.0663 26.9478 19.6088 27.1621C19.5218 27.2024 19.4299 27.2307 19.3351 27.2448C18.8352 27.3205 18.3339 26.8191 17.3319 25.8172L8.12394 16.6092C7.12197 15.6073 6.62063 15.1059 6.69629 14.606C6.71091 14.5115 6.73901 14.4196 6.77973 14.333C6.99328 13.8748 7.68837 13.7355 9.07783 13.4576L10.6009 13.1536L10.9425 13.0836C12.1058 12.8245 13.1966 12.3087 14.1351 11.5739C14.2029 11.5202 14.2715 11.4657 14.4073 11.354L16.6361 9.52967Z" fill="#D9D5B6"/>
<path d="M9.5021 21.7068C9.50776 21.8623 9.61877 22.1063 9.81888 22.4011C10.0183 22.6953 10.2955 23.0234 10.6066 23.3345C10.9177 23.6456 11.2458 23.9228 11.54 24.1222C11.8348 24.3223 12.0781 24.4327 12.2351 24.4383" stroke="#D9D5B6" stroke-width="2" stroke-linecap="round"/>
</g>
<defs>
<clipPath id="clip0_284_527">
<rect width="24" height="24" fill="white" transform="translate(16.9706) rotate(45)"/>
</clipPath>
</defs>
</svg>
