<svg width="14" height="21" viewBox="0 0 14 21" fill="none" xmlns="http://www.w3.org/2000/svg">
<path d="M6.0935 14.004C6.0935 13.0014 6.28071 12.1646 6.65514 11.4935C7.02868 10.8231 7.798 10.0682 8.96309 9.2288C9.77243 8.62649 10.3817 8.05493 10.7908 7.5141C11.1999 6.97254 11.4044 6.36291 11.4044 5.68523C11.4044 4.70969 10.9962 3.89735 10.1798 3.24821C9.36331 2.5998 8.24803 2.2756 6.83391 2.2756C5.68216 2.2756 4.76476 2.49588 4.08171 2.93645C3.39867 3.37701 2.84947 3.92516 2.43413 4.58089L1 4.02762C1.56921 3.09599 2.33096 2.35866 3.28527 1.81563C4.23958 1.27188 5.42246 1 6.83391 1C8.80834 1 10.3301 1.46472 11.3991 2.39415C12.4664 3.32359 13 4.4122 13 5.65998C13 6.46208 12.7865 7.19465 12.3596 7.8577C11.9336 8.52147 11.312 9.15232 10.4946 9.75023C9.26815 10.6387 8.49527 11.3632 8.17599 11.9238C7.85759 12.4851 7.69839 13.1785 7.69839 14.004H6.0935ZM6.83524 20C6.47771 20 6.16598 19.8906 5.90006 19.6718C5.63324 19.4522 5.49983 19.1957 5.49983 18.9022C5.49983 18.6088 5.63324 18.3523 5.90006 18.1327C6.16598 17.9139 6.47727 17.8045 6.83391 17.8045C7.19055 17.8045 7.50272 17.9139 7.77043 18.1327C8.03635 18.3523 8.16932 18.6088 8.16932 18.9022C8.16932 19.1957 8.03591 19.4522 7.76909 19.6718C7.50406 19.8906 7.19277 20 6.83524 20Z" fill="#D9D5B6" stroke="#D9D5B6"/>
</svg>
