<svg width="235" height="38" viewBox="0 0 235 38" fill="none" xmlns="http://www.w3.org/2000/svg">
<g filter="url(#filter0_d_410_20)">
<circle cx="9" cy="5" r="3" fill="white" fill-opacity="0.25" shape-rendering="crispEdges"/>
</g>
<g filter="url(#filter1_d_410_20)">
<circle cx="9" cy="15" r="3" fill="white" fill-opacity="0.25" shape-rendering="crispEdges"/>
</g>
<g filter="url(#filter2_d_410_20)">
<circle cx="9" cy="25" r="3" fill="white" fill-opacity="0.25" shape-rendering="crispEdges"/>
</g>
<g filter="url(#filter3_d_410_20)">
<circle cx="20" cy="5" r="3" fill="white" fill-opacity="0.25" shape-rendering="crispEdges"/>
</g>
<g filter="url(#filter4_d_410_20)">
<circle cx="20" cy="15" r="3" fill="white" fill-opacity="0.25" shape-rendering="crispEdges"/>
</g>
<g filter="url(#filter5_d_410_20)">
<circle cx="20" cy="25" r="3" fill="white" fill-opacity="0.25" shape-rendering="crispEdges"/>
</g>
<g filter="url(#filter6_d_410_20)">
<circle cx="31" cy="5" r="3" fill="white" fill-opacity="0.25" shape-rendering="crispEdges"/>
</g>
<g filter="url(#filter7_d_410_20)">
<circle cx="31" cy="15" r="3" fill="white" fill-opacity="0.25" shape-rendering="crispEdges"/>
</g>
<g filter="url(#filter8_d_410_20)">
<circle cx="31" cy="25" r="3" fill="white" fill-opacity="0.25" shape-rendering="crispEdges"/>
</g>
<line x1="43.5" y1="5" x2="43.5" y2="25" stroke="white" stroke-opacity="0.15"/>
<path d="M56.308 12.94L56.512 12.16C56.704 12.224 56.876 12.272 57.028 12.304C57.18 12.336 57.32 12.352 57.448 12.352C57.8 12.352 58.08 12.228 58.288 11.98C58.504 11.724 58.704 11.38 58.888 10.948L58.816 11.38L55.948 5.224L56.2 5.404L55.072 5.2V4.684L58.216 4.624V5.14L56.908 5.392L57.028 5.14L59.284 10.372L59.164 10.42L61.288 5.188L61.372 5.404L60.088 5.2V4.684L63.064 4.624V5.14L61.936 5.392L62.188 5.188L59.824 10.84C59.616 11.336 59.396 11.76 59.164 12.112C58.932 12.456 58.676 12.72 58.396 12.904C58.116 13.08 57.792 13.168 57.424 13.168C57.256 13.168 57.08 13.148 56.896 13.108C56.712 13.068 56.516 13.012 56.308 12.94ZM66.6143 13V12.484L67.7543 12.22L67.5503 12.532V7.12L67.8023 7.468L66.6143 7.204V6.7L68.4503 6.664H73.6103V7.18L72.4583 7.468L72.6743 7.132V12.532L72.4703 12.22L73.6103 12.484V13H70.8143V12.484L71.8943 12.244L71.7143 12.532V7.12L71.9783 7.396L68.2463 7.384L68.5103 7.12V12.532L68.3303 12.244L69.4103 12.484V13H66.6143ZM77.981 15.76V15.244L79.073 14.992L78.917 15.172V7.288L79.061 7.444L77.981 7.216V6.7L79.661 6.616L79.781 7.66L79.673 7.588C80.041 7.244 80.409 6.988 80.777 6.82C81.145 6.644 81.509 6.556 81.869 6.556C82.317 6.556 82.717 6.68 83.069 6.928C83.429 7.176 83.713 7.536 83.921 8.008C84.129 8.472 84.233 9.044 84.233 9.724C84.233 10.46 84.105 11.08 83.849 11.584C83.601 12.088 83.249 12.472 82.793 12.736C82.337 12.992 81.801 13.12 81.185 13.12C80.961 13.12 80.729 13.1 80.489 13.06C80.249 13.02 79.997 12.968 79.733 12.904L79.877 12.772V15.172L79.745 15.004L80.981 15.244V15.76H77.981ZM81.077 12.4C81.781 12.4 82.317 12.172 82.685 11.716C83.053 11.26 83.237 10.628 83.237 9.82C83.237 9.292 83.161 8.84 83.009 8.464C82.865 8.088 82.665 7.8 82.409 7.6C82.153 7.392 81.861 7.288 81.533 7.288C81.253 7.288 80.961 7.364 80.657 7.516C80.361 7.66 80.061 7.884 79.757 8.188L79.877 7.888V12.388L79.745 12.172C80.233 12.324 80.677 12.4 81.077 12.4ZM93.7935 12.46L93.6375 12.244L94.7415 12.46V12.988L93.0615 13.06L92.9175 11.908L93.0015 11.944C92.6495 12.328 92.2695 12.62 91.8615 12.82C91.4535 13.012 91.0575 13.108 90.6735 13.108C90.2095 13.108 89.8175 12.96 89.4975 12.664C89.1775 12.368 89.0175 11.92 89.0175 11.32C89.0175 10.848 89.1175 10.488 89.3175 10.24C89.5175 9.984 89.7935 9.804 90.1455 9.7C90.4975 9.596 90.9055 9.544 91.3695 9.544H92.9415L92.8335 9.664V8.512C92.8335 8.072 92.7175 7.76 92.4855 7.576C92.2535 7.384 91.9335 7.288 91.5255 7.288C91.3095 7.288 91.0775 7.312 90.8295 7.36C90.5895 7.4 90.3335 7.468 90.0615 7.564L90.2055 7.408L90.0855 8.5H89.4495L89.3535 7.012C89.8095 6.86 90.2375 6.748 90.6375 6.676C91.0375 6.596 91.4055 6.556 91.7415 6.556C92.3815 6.556 92.8815 6.7 93.2415 6.988C93.6095 7.268 93.7935 7.72 93.7935 8.344V12.46ZM89.9895 11.236C89.9895 11.628 90.0815 11.916 90.2655 12.1C90.4575 12.284 90.6975 12.376 90.9855 12.376C91.2655 12.376 91.5735 12.292 91.9095 12.124C92.2535 11.948 92.5855 11.712 92.9055 11.416L92.8335 11.668V10.06L92.9415 10.168H91.5135C90.9455 10.168 90.5495 10.256 90.3255 10.432C90.1015 10.6 89.9895 10.868 89.9895 11.236ZM100.932 6.664H102.132C102.644 6.664 103.076 6.716 103.428 6.82C103.78 6.924 104.044 7.088 104.22 7.312C104.404 7.528 104.496 7.816 104.496 8.176C104.496 8.504 104.416 8.776 104.256 8.992C104.104 9.208 103.876 9.376 103.572 9.496C103.268 9.608 102.884 9.684 102.42 9.724L102.468 9.628C102.828 9.628 103.148 9.66 103.428 9.724C103.708 9.788 103.948 9.888 104.148 10.024C104.356 10.16 104.512 10.332 104.616 10.54C104.728 10.74 104.784 10.988 104.784 11.284C104.784 11.86 104.56 12.292 104.112 12.58C103.672 12.86 102.98 13 102.036 13H99.0357V12.484L100.08 12.256L99.9717 12.388V7.324L100.068 7.432L99.0357 7.216V6.7L100.932 6.664ZM101.94 7.324H100.764L100.932 7.156V9.568L100.764 9.424H101.64C102.312 9.424 102.796 9.332 103.092 9.148C103.388 8.964 103.536 8.688 103.536 8.32C103.536 7.96 103.404 7.704 103.14 7.552C102.876 7.4 102.476 7.324 101.94 7.324ZM101.928 12.328C102.576 12.328 103.044 12.24 103.332 12.064C103.628 11.888 103.776 11.596 103.776 11.188C103.776 10.796 103.644 10.496 103.38 10.288C103.124 10.08 102.72 9.976 102.168 9.976H100.764L100.932 9.82V12.484L100.764 12.328H101.928ZM109.605 13.096C109.493 13.096 109.377 13.084 109.257 13.06C109.137 13.044 109.005 13.016 108.861 12.976L109.005 12.196C109.069 12.204 109.129 12.212 109.185 12.22C109.249 12.228 109.309 12.232 109.365 12.232C109.821 12.232 110.157 12.032 110.373 11.632C110.597 11.224 110.745 10.64 110.817 9.88C110.897 9.12 110.941 8.208 110.949 7.144L111.201 7.432L109.905 7.18V6.664H115.497V7.18L114.345 7.444L114.561 7.144V12.388L114.453 12.256L115.497 12.484V13H112.653V12.484L113.697 12.256L113.601 12.388V7.12L113.769 7.396H111.405L111.705 7.12C111.697 8.056 111.661 8.892 111.597 9.628C111.541 10.364 111.437 10.992 111.285 11.512C111.133 12.024 110.921 12.416 110.649 12.688C110.377 12.96 110.029 13.096 109.605 13.096ZM122.849 13.108C122.313 13.108 121.837 12.988 121.421 12.748C121.013 12.5 120.693 12.14 120.461 11.668C120.229 11.196 120.113 10.62 120.113 9.94C120.113 9.244 120.233 8.644 120.473 8.14C120.713 7.636 121.053 7.248 121.493 6.976C121.933 6.696 122.449 6.556 123.041 6.556C123.601 6.556 124.061 6.676 124.421 6.916C124.789 7.148 125.061 7.472 125.237 7.888C125.421 8.304 125.513 8.78 125.513 9.316C125.513 9.404 125.509 9.492 125.501 9.58C125.493 9.668 125.481 9.776 125.465 9.904H120.845V9.22H124.625L124.517 9.292C124.525 8.932 124.481 8.6 124.385 8.296C124.289 7.992 124.125 7.748 123.893 7.564C123.661 7.38 123.353 7.288 122.969 7.288C122.561 7.288 122.217 7.396 121.937 7.612C121.657 7.828 121.449 8.124 121.313 8.5C121.177 8.876 121.109 9.312 121.109 9.808C121.109 10.336 121.185 10.792 121.337 11.176C121.489 11.552 121.709 11.844 121.997 12.052C122.293 12.26 122.653 12.364 123.077 12.364C123.373 12.364 123.697 12.308 124.049 12.196C124.401 12.076 124.765 11.896 125.141 11.656L125.489 12.196C125.041 12.5 124.593 12.728 124.145 12.88C123.697 13.032 123.265 13.108 122.849 13.108ZM130.156 13V12.484L131.296 12.22L131.092 12.532V7.156L131.344 7.468L130.156 7.204V6.7L132.964 6.628V7.132L131.824 7.432L132.052 7.144V9.592L131.788 9.328H135.58L135.304 9.592V7.156L135.472 7.42L134.392 7.204V6.7L137.212 6.628V7.132L136.06 7.432L136.264 7.144V12.532L136.06 12.22L137.212 12.484V13H134.392V12.484L135.484 12.244L135.304 12.532V9.784L135.58 10.048H131.788L132.052 9.784V12.532L131.872 12.244L132.964 12.484V13H130.156ZM141.689 13V12.484L142.829 12.22L142.625 12.436V7.24L142.877 7.468L141.689 7.204V6.7L144.461 6.628V7.132L143.321 7.432L143.549 7.216V11.308L143.381 11.296L146.993 7.516L146.885 7.744L146.873 7.24L147.041 7.42L145.961 7.204V6.7L148.733 6.628V7.132L147.581 7.432L147.797 7.216V12.436L147.593 12.22L148.733 12.484V13H145.961V12.484L147.053 12.244L146.873 12.436V8.212L147.029 8.296L143.429 12.124L143.549 11.908V12.436L143.453 12.28L144.461 12.484V13H141.689ZM156.091 13.108C155.555 13.108 155.079 12.988 154.663 12.748C154.255 12.5 153.935 12.14 153.703 11.668C153.471 11.196 153.355 10.62 153.355 9.94C153.355 9.244 153.475 8.644 153.715 8.14C153.955 7.636 154.295 7.248 154.735 6.976C155.175 6.696 155.691 6.556 156.283 6.556C156.843 6.556 157.303 6.676 157.663 6.916C158.031 7.148 158.303 7.472 158.479 7.888C158.663 8.304 158.755 8.78 158.755 9.316C158.755 9.404 158.751 9.492 158.743 9.58C158.735 9.668 158.723 9.776 158.707 9.904H154.087V9.22H157.867L157.759 9.292C157.767 8.932 157.723 8.6 157.627 8.296C157.531 7.992 157.367 7.748 157.135 7.564C156.903 7.38 156.595 7.288 156.211 7.288C155.803 7.288 155.459 7.396 155.179 7.612C154.899 7.828 154.691 8.124 154.555 8.5C154.419 8.876 154.351 9.312 154.351 9.808C154.351 10.336 154.427 10.792 154.579 11.176C154.731 11.552 154.951 11.844 155.239 12.052C155.535 12.26 155.895 12.364 156.319 12.364C156.615 12.364 156.939 12.308 157.291 12.196C157.643 12.076 158.007 11.896 158.383 11.656L158.731 12.196C158.283 12.5 157.835 12.728 157.387 12.88C156.939 13.032 156.507 13.108 156.091 13.108ZM57.556 27.108C57.188 27.108 56.82 27.064 56.452 26.976C56.084 26.888 55.744 26.756 55.432 26.58L55.66 25.956C55.94 26.108 56.24 26.228 56.56 26.316C56.888 26.396 57.204 26.436 57.508 26.436C57.82 26.436 58.108 26.392 58.372 26.304C58.644 26.216 58.86 26.08 59.02 25.896C59.18 25.712 59.26 25.472 59.26 25.176C59.26 24.952 59.204 24.752 59.092 24.576C58.98 24.4 58.792 24.26 58.528 24.156C58.272 24.052 57.924 24 57.484 24H56.692V23.4H57.484C58.06 23.4 58.48 23.3 58.744 23.1C59.008 22.892 59.14 22.616 59.14 22.272C59.14 21.888 59 21.616 58.72 21.456C58.448 21.296 58.104 21.216 57.688 21.216C57.456 21.216 57.216 21.236 56.968 21.276C56.72 21.316 56.468 21.368 56.212 21.432L56.44 21.192L56.284 22.344H55.648L55.6 20.916C55.984 20.804 56.364 20.716 56.74 20.652C57.124 20.588 57.492 20.556 57.844 20.556C58.268 20.556 58.652 20.612 58.996 20.724C59.34 20.828 59.608 21 59.8 21.24C60 21.472 60.1 21.776 60.1 22.152C60.1 22.616 59.948 22.976 59.644 23.232C59.348 23.48 58.88 23.64 58.24 23.712L58.216 23.628C58.928 23.66 59.444 23.82 59.764 24.108C60.092 24.388 60.256 24.756 60.256 25.212C60.256 25.644 60.128 26.004 59.872 26.292C59.616 26.572 59.284 26.78 58.876 26.916C58.468 27.044 58.028 27.108 57.556 27.108ZM69.8825 26.46L69.7265 26.244L70.8305 26.46V26.988L69.1505 27.06L69.0065 25.908L69.0905 25.944C68.7385 26.328 68.3585 26.62 67.9505 26.82C67.5425 27.012 67.1465 27.108 66.7625 27.108C66.2985 27.108 65.9065 26.96 65.5865 26.664C65.2665 26.368 65.1065 25.92 65.1065 25.32C65.1065 24.848 65.2065 24.488 65.4065 24.24C65.6065 23.984 65.8825 23.804 66.2345 23.7C66.5865 23.596 66.9945 23.544 67.4585 23.544H69.0305L68.9225 23.664V22.512C68.9225 22.072 68.8065 21.76 68.5745 21.576C68.3425 21.384 68.0225 21.288 67.6145 21.288C67.3985 21.288 67.1665 21.312 66.9185 21.36C66.6785 21.4 66.4225 21.468 66.1505 21.564L66.2945 21.408L66.1745 22.5H65.5385L65.4425 21.012C65.8985 20.86 66.3265 20.748 66.7265 20.676C67.1265 20.596 67.4945 20.556 67.8305 20.556C68.4705 20.556 68.9705 20.7 69.3305 20.988C69.6985 21.268 69.8825 21.72 69.8825 22.344V26.46ZM66.0785 25.236C66.0785 25.628 66.1705 25.916 66.3545 26.1C66.5465 26.284 66.7865 26.376 67.0745 26.376C67.3545 26.376 67.6625 26.292 67.9985 26.124C68.3425 25.948 68.6745 25.712 68.9945 25.416L68.9225 25.668V24.06L69.0305 24.168H67.6025C67.0345 24.168 66.6385 24.256 66.4145 24.432C66.1905 24.6 66.0785 24.868 66.0785 25.236ZM80.1768 20.664L80.1408 22.728H79.5408L79.3608 21.228L79.5048 21.396H76.9488L77.0208 21.24V26.436L76.8768 26.256L78.2208 26.484V27H75.1248V26.484L76.1808 26.256L76.0608 26.436V21.264L76.1928 21.444L75.1248 21.216V20.7L76.8048 20.664H80.1768ZM84.1357 29.76V29.244L85.2277 28.992L85.0717 29.172V21.288L85.2157 21.444L84.1357 21.216V20.7L85.8157 20.616L85.9357 21.66L85.8277 21.588C86.1957 21.244 86.5637 20.988 86.9317 20.82C87.2997 20.644 87.6637 20.556 88.0237 20.556C88.4717 20.556 88.8717 20.68 89.2237 20.928C89.5837 21.176 89.8677 21.536 90.0757 22.008C90.2837 22.472 90.3877 23.044 90.3877 23.724C90.3877 24.46 90.2597 25.08 90.0037 25.584C89.7557 26.088 89.4037 26.472 88.9477 26.736C88.4917 26.992 87.9557 27.12 87.3397 27.12C87.1157 27.12 86.8837 27.1 86.6437 27.06C86.4037 27.02 86.1517 26.968 85.8877 26.904L86.0317 26.772V29.172L85.8997 29.004L87.1357 29.244V29.76H84.1357ZM87.2317 26.4C87.9357 26.4 88.4717 26.172 88.8397 25.716C89.2077 25.26 89.3917 24.628 89.3917 23.82C89.3917 23.292 89.3157 22.84 89.1637 22.464C89.0197 22.088 88.8197 21.8 88.5637 21.6C88.3077 21.392 88.0157 21.288 87.6877 21.288C87.4077 21.288 87.1157 21.364 86.8117 21.516C86.5157 21.66 86.2157 21.884 85.9117 22.188L86.0317 21.888V26.388L85.8997 26.172C86.3877 26.324 86.8317 26.4 87.2317 26.4ZM94.4941 29.808L94.5781 29.1C94.6741 29.116 94.7621 29.128 94.8421 29.136C94.9301 29.144 95.0101 29.148 95.0821 29.148C95.4741 29.148 95.7901 29.056 96.0301 28.872C96.2781 28.696 96.4861 28.428 96.6541 28.068C96.8221 27.708 96.9941 27.26 97.1701 26.724L97.1341 27.084L94.8901 21.24L95.0221 21.348L94.2421 21.216V20.7L96.8701 20.616V21.144L95.7901 21.324L95.8621 21.216L97.6501 26.316L97.4341 26.268L99.1501 21.24L99.2221 21.348L98.1661 21.216V20.7L100.71 20.616V21.144L99.8701 21.336L100.038 21.228L97.9261 27.024C97.7821 27.424 97.6301 27.796 97.4701 28.14C97.3181 28.484 97.1421 28.784 96.9421 29.04C96.7421 29.304 96.4981 29.508 96.2101 29.652C95.9221 29.796 95.5741 29.868 95.1661 29.868C94.9821 29.868 94.7581 29.848 94.4941 29.808ZM106.693 27.108C106.325 27.108 105.957 27.064 105.589 26.976C105.221 26.888 104.881 26.756 104.569 26.58L104.797 25.956C105.077 26.108 105.377 26.228 105.697 26.316C106.025 26.396 106.341 26.436 106.645 26.436C106.957 26.436 107.245 26.392 107.509 26.304C107.781 26.216 107.997 26.08 108.157 25.896C108.317 25.712 108.397 25.472 108.397 25.176C108.397 24.952 108.341 24.752 108.229 24.576C108.117 24.4 107.929 24.26 107.665 24.156C107.409 24.052 107.061 24 106.621 24H105.829V23.4H106.621C107.197 23.4 107.617 23.3 107.881 23.1C108.145 22.892 108.277 22.616 108.277 22.272C108.277 21.888 108.137 21.616 107.857 21.456C107.585 21.296 107.241 21.216 106.825 21.216C106.593 21.216 106.353 21.236 106.105 21.276C105.857 21.316 105.605 21.368 105.349 21.432L105.577 21.192L105.421 22.344H104.785L104.737 20.916C105.121 20.804 105.501 20.716 105.877 20.652C106.261 20.588 106.629 20.556 106.981 20.556C107.405 20.556 107.789 20.612 108.133 20.724C108.477 20.828 108.745 21 108.937 21.24C109.137 21.472 109.237 21.776 109.237 22.152C109.237 22.616 109.085 22.976 108.781 23.232C108.485 23.48 108.017 23.64 107.377 23.712L107.353 23.628C108.065 23.66 108.581 23.82 108.901 24.108C109.229 24.388 109.393 24.756 109.393 25.212C109.393 25.644 109.265 26.004 109.009 26.292C108.753 26.572 108.421 26.78 108.013 26.916C107.605 27.044 107.165 27.108 106.693 27.108ZM113.958 27V26.484L115.038 26.244L114.894 26.448V21.204L115.05 21.42L113.958 21.204V20.7L116.742 20.628V21.132L115.734 21.384L115.854 21.204V23.556L115.674 23.34H117.378L117.054 23.52L118.422 21.228L118.506 21.36L117.51 21.216V20.7L120.15 20.616V21.132L119.082 21.348L119.358 21.168L117.798 23.76L117.858 23.472L119.646 26.412L119.49 26.28L120.486 26.484V27H118.962L117.162 23.952L117.354 24.012H115.674L115.854 23.94V26.448L115.734 26.244L116.886 26.484V27H113.958ZM127.263 20.556C128.143 20.556 128.831 20.832 129.327 21.384C129.831 21.936 130.083 22.716 130.083 23.724C130.083 24.404 129.959 25 129.711 25.512C129.471 26.016 129.127 26.408 128.679 26.688C128.231 26.968 127.691 27.108 127.059 27.108C126.195 27.108 125.519 26.84 125.031 26.304C124.543 25.76 124.299 24.98 124.299 23.964C124.299 23.26 124.415 22.656 124.647 22.152C124.887 21.64 125.227 21.248 125.667 20.976C126.115 20.696 126.647 20.556 127.263 20.556ZM127.215 21.264C126.599 21.264 126.127 21.496 125.799 21.96C125.471 22.424 125.307 23.076 125.307 23.916C125.307 24.74 125.463 25.36 125.775 25.776C126.087 26.192 126.535 26.4 127.119 26.4C127.543 26.4 127.899 26.296 128.187 26.088C128.483 25.872 128.703 25.568 128.847 25.176C128.999 24.784 129.075 24.316 129.075 23.772C129.075 22.956 128.911 22.336 128.583 21.912C128.263 21.48 127.807 21.264 127.215 21.264ZM134.682 27V26.484L135.822 26.22L135.618 26.436V21.24L135.87 21.468L134.682 21.204V20.7L137.454 20.628V21.132L136.314 21.432L136.542 21.216V25.308L136.374 25.296L139.986 21.516L139.878 21.744L139.866 21.24L140.034 21.42L138.954 21.204V20.7L141.726 20.628V21.132L140.574 21.432L140.79 21.216V26.436L140.586 26.22L141.726 26.484V27H138.954V26.484L140.046 26.244L139.866 26.436V22.212L140.022 22.296L136.422 26.124L136.542 25.908V26.436L136.446 26.28L137.454 26.484V27H134.682ZM138.21 19.308C137.898 19.308 137.606 19.256 137.334 19.152C137.07 19.048 136.854 18.888 136.686 18.672C136.518 18.456 136.422 18.176 136.398 17.832L137.322 17.772C137.346 18.116 137.454 18.368 137.646 18.528C137.846 18.68 138.082 18.756 138.354 18.756C138.618 18.756 138.838 18.68 139.014 18.528C139.19 18.376 139.274 18.136 139.266 17.808L139.998 17.772C139.998 18.124 139.914 18.416 139.746 18.648C139.586 18.872 139.37 19.04 139.098 19.152C138.834 19.256 138.538 19.308 138.21 19.308ZM152.097 29.76V29.244L153.189 28.992L153.033 29.172V21.288L153.177 21.444L152.097 21.216V20.7L153.777 20.616L153.897 21.66L153.789 21.588C154.157 21.244 154.525 20.988 154.893 20.82C155.261 20.644 155.625 20.556 155.985 20.556C156.433 20.556 156.833 20.68 157.185 20.928C157.545 21.176 157.829 21.536 158.037 22.008C158.245 22.472 158.349 23.044 158.349 23.724C158.349 24.46 158.221 25.08 157.965 25.584C157.717 26.088 157.365 26.472 156.909 26.736C156.453 26.992 155.917 27.12 155.301 27.12C155.077 27.12 154.845 27.1 154.605 27.06C154.365 27.02 154.113 26.968 153.849 26.904L153.993 26.772V29.172L153.861 29.004L155.097 29.244V29.76H152.097ZM155.193 26.4C155.897 26.4 156.433 26.172 156.801 25.716C157.169 25.26 157.353 24.628 157.353 23.82C157.353 23.292 157.277 22.84 157.125 22.464C156.981 22.088 156.781 21.8 156.525 21.6C156.269 21.392 155.977 21.288 155.649 21.288C155.369 21.288 155.077 21.364 154.773 21.516C154.477 21.66 154.177 21.884 153.873 22.188L153.993 21.888V26.388L153.861 26.172C154.349 26.324 154.793 26.4 155.193 26.4ZM165.834 27.108C165.298 27.108 164.822 26.988 164.406 26.748C163.998 26.5 163.678 26.14 163.446 25.668C163.214 25.196 163.098 24.62 163.098 23.94C163.098 23.244 163.218 22.644 163.458 22.14C163.698 21.636 164.038 21.248 164.478 20.976C164.918 20.696 165.434 20.556 166.026 20.556C166.586 20.556 167.046 20.676 167.406 20.916C167.774 21.148 168.046 21.472 168.222 21.888C168.406 22.304 168.498 22.78 168.498 23.316C168.498 23.404 168.494 23.492 168.486 23.58C168.478 23.668 168.466 23.776 168.45 23.904H163.83V23.22H167.61L167.502 23.292C167.51 22.932 167.466 22.6 167.37 22.296C167.274 21.992 167.11 21.748 166.878 21.564C166.646 21.38 166.338 21.288 165.954 21.288C165.546 21.288 165.202 21.396 164.922 21.612C164.642 21.828 164.434 22.124 164.298 22.5C164.162 22.876 164.094 23.312 164.094 23.808C164.094 24.336 164.17 24.792 164.322 25.176C164.474 25.552 164.694 25.844 164.982 26.052C165.278 26.26 165.638 26.364 166.062 26.364C166.358 26.364 166.682 26.308 167.034 26.196C167.386 26.076 167.75 25.896 168.126 25.656L168.474 26.196C168.026 26.5 167.578 26.728 167.13 26.88C166.682 27.032 166.25 27.108 165.834 27.108ZM175.96 27.108C175.448 27.108 174.984 26.984 174.568 26.736C174.16 26.48 173.836 26.112 173.596 25.632C173.364 25.152 173.248 24.576 173.248 23.904C173.248 23.32 173.328 22.82 173.488 22.404C173.656 21.98 173.88 21.632 174.16 21.36C174.44 21.088 174.76 20.888 175.12 20.76C175.488 20.624 175.868 20.556 176.26 20.556C176.58 20.556 176.92 20.6 177.28 20.688C177.648 20.776 177.968 20.896 178.24 21.048L178.192 22.548H177.544L177.388 21.42L177.484 21.528C177.284 21.432 177.072 21.364 176.848 21.324C176.624 21.284 176.424 21.264 176.248 21.264C175.832 21.264 175.472 21.372 175.168 21.588C174.872 21.796 174.644 22.092 174.484 22.476C174.324 22.86 174.244 23.316 174.244 23.844C174.244 24.388 174.328 24.848 174.496 25.224C174.664 25.6 174.892 25.884 175.18 26.076C175.476 26.268 175.808 26.364 176.176 26.364C176.464 26.364 176.768 26.304 177.088 26.184C177.408 26.064 177.74 25.884 178.084 25.644L178.42 26.172C178.004 26.492 177.588 26.728 177.172 26.88C176.756 27.032 176.352 27.108 175.96 27.108ZM182.429 29.808L182.513 29.1C182.609 29.116 182.697 29.128 182.777 29.136C182.865 29.144 182.945 29.148 183.017 29.148C183.409 29.148 183.725 29.056 183.965 28.872C184.213 28.696 184.421 28.428 184.589 28.068C184.757 27.708 184.929 27.26 185.105 26.724L185.069 27.084L182.825 21.24L182.957 21.348L182.177 21.216V20.7L184.805 20.616V21.144L183.725 21.324L183.797 21.216L185.585 26.316L185.369 26.268L187.085 21.24L187.157 21.348L186.101 21.216V20.7L188.645 20.616V21.144L187.805 21.336L187.973 21.228L185.861 27.024C185.717 27.424 185.565 27.796 185.405 28.14C185.253 28.484 185.077 28.784 184.877 29.04C184.677 29.304 184.433 29.508 184.145 29.652C183.857 29.796 183.509 29.868 183.101 29.868C182.917 29.868 182.693 29.848 182.429 29.808ZM192.443 29.76V29.244L193.535 28.992L193.379 29.172V21.288L193.523 21.444L192.443 21.216V20.7L194.123 20.616L194.243 21.66L194.135 21.588C194.503 21.244 194.871 20.988 195.239 20.82C195.607 20.644 195.971 20.556 196.331 20.556C196.779 20.556 197.179 20.68 197.531 20.928C197.891 21.176 198.175 21.536 198.383 22.008C198.591 22.472 198.695 23.044 198.695 23.724C198.695 24.46 198.567 25.08 198.311 25.584C198.063 26.088 197.711 26.472 197.255 26.736C196.799 26.992 196.263 27.12 195.647 27.12C195.423 27.12 195.191 27.1 194.951 27.06C194.711 27.02 194.459 26.968 194.195 26.904L194.339 26.772V29.172L194.207 29.004L195.443 29.244V29.76H192.443ZM195.539 26.4C196.243 26.4 196.779 26.172 197.147 25.716C197.515 25.26 197.699 24.628 197.699 23.82C197.699 23.292 197.623 22.84 197.471 22.464C197.327 22.088 197.127 21.8 196.871 21.6C196.615 21.392 196.323 21.288 195.995 21.288C195.715 21.288 195.423 21.364 195.119 21.516C194.823 21.66 194.523 21.884 194.219 22.188L194.339 21.888V26.388L194.207 26.172C194.695 26.324 195.139 26.4 195.539 26.4ZM206.131 27.108C205.619 27.108 205.155 26.984 204.739 26.736C204.331 26.48 204.007 26.112 203.767 25.632C203.535 25.152 203.419 24.576 203.419 23.904C203.419 23.32 203.499 22.82 203.659 22.404C203.827 21.98 204.051 21.632 204.331 21.36C204.611 21.088 204.931 20.888 205.291 20.76C205.659 20.624 206.039 20.556 206.431 20.556C206.751 20.556 207.091 20.6 207.451 20.688C207.819 20.776 208.139 20.896 208.411 21.048L208.363 22.548H207.715L207.559 21.42L207.655 21.528C207.455 21.432 207.243 21.364 207.019 21.324C206.795 21.284 206.595 21.264 206.419 21.264C206.003 21.264 205.643 21.372 205.339 21.588C205.043 21.796 204.815 22.092 204.655 22.476C204.495 22.86 204.415 23.316 204.415 23.844C204.415 24.388 204.499 24.848 204.667 25.224C204.835 25.6 205.063 25.884 205.351 26.076C205.647 26.268 205.979 26.364 206.347 26.364C206.635 26.364 206.939 26.304 207.259 26.184C207.579 26.064 207.911 25.884 208.255 25.644L208.591 26.172C208.175 26.492 207.759 26.728 207.343 26.88C206.927 27.032 206.523 27.108 206.131 27.108ZM215.937 20.556C216.817 20.556 217.505 20.832 218.001 21.384C218.505 21.936 218.757 22.716 218.757 23.724C218.757 24.404 218.633 25 218.385 25.512C218.145 26.016 217.801 26.408 217.353 26.688C216.905 26.968 216.365 27.108 215.733 27.108C214.869 27.108 214.193 26.84 213.705 26.304C213.217 25.76 212.973 24.98 212.973 23.964C212.973 23.26 213.089 22.656 213.321 22.152C213.561 21.64 213.901 21.248 214.341 20.976C214.789 20.696 215.321 20.556 215.937 20.556ZM215.889 21.264C215.273 21.264 214.801 21.496 214.473 21.96C214.145 22.424 213.981 23.076 213.981 23.916C213.981 24.74 214.137 25.36 214.449 25.776C214.761 26.192 215.209 26.4 215.793 26.4C216.217 26.4 216.573 26.296 216.861 26.088C217.157 25.872 217.377 25.568 217.521 25.176C217.673 24.784 217.749 24.316 217.749 23.772C217.749 22.956 217.585 22.336 217.257 21.912C216.937 21.48 216.481 21.264 215.889 21.264ZM225.263 20.664H226.463C226.975 20.664 227.407 20.716 227.759 20.82C228.111 20.924 228.375 21.088 228.551 21.312C228.735 21.528 228.827 21.816 228.827 22.176C228.827 22.504 228.747 22.776 228.587 22.992C228.435 23.208 228.207 23.376 227.903 23.496C227.599 23.608 227.215 23.684 226.751 23.724L226.799 23.628C227.159 23.628 227.479 23.66 227.759 23.724C228.039 23.788 228.279 23.888 228.479 24.024C228.687 24.16 228.843 24.332 228.947 24.54C229.059 24.74 229.115 24.988 229.115 25.284C229.115 25.86 228.891 26.292 228.443 26.58C228.003 26.86 227.311 27 226.367 27H223.367V26.484L224.411 26.256L224.303 26.388V21.324L224.399 21.432L223.367 21.216V20.7L225.263 20.664ZM226.271 21.324H225.095L225.263 21.156V23.568L225.095 23.424H225.971C226.643 23.424 227.127 23.332 227.423 23.148C227.719 22.964 227.867 22.688 227.867 22.32C227.867 21.96 227.735 21.704 227.471 21.552C227.207 21.4 226.807 21.324 226.271 21.324ZM226.259 26.328C226.907 26.328 227.375 26.24 227.663 26.064C227.959 25.888 228.107 25.596 228.107 25.188C228.107 24.796 227.975 24.496 227.711 24.288C227.455 24.08 227.051 23.976 226.499 23.976H225.095L225.263 23.82V26.484L225.095 26.328H226.259Z" fill="#C7C6BE"/>
<defs>
<filter id="filter0_d_410_20" x="0" y="0" width="18" height="18" filterUnits="userSpaceOnUse" color-interpolation-filters="sRGB">
<feFlood flood-opacity="0" result="BackgroundImageFix"/>
<feColorMatrix in="SourceAlpha" type="matrix" values="0 0 0 0 0 0 0 0 0 0 0 0 0 0 0 0 0 0 127 0" result="hardAlpha"/>
<feMorphology radius="1" operator="dilate" in="SourceAlpha" result="effect1_dropShadow_410_20"/>
<feOffset dy="4"/>
<feGaussianBlur stdDeviation="2.5"/>
<feComposite in2="hardAlpha" operator="out"/>
<feColorMatrix type="matrix" values="0 0 0 0 1 0 0 0 0 1 0 0 0 0 1 0 0 0 0.15 0"/>
<feBlend mode="normal" in2="BackgroundImageFix" result="effect1_dropShadow_410_20"/>
<feBlend mode="normal" in="SourceGraphic" in2="effect1_dropShadow_410_20" result="shape"/>
</filter>
<filter id="filter1_d_410_20" x="0" y="10" width="18" height="18" filterUnits="userSpaceOnUse" color-interpolation-filters="sRGB">
<feFlood flood-opacity="0" result="BackgroundImageFix"/>
<feColorMatrix in="SourceAlpha" type="matrix" values="0 0 0 0 0 0 0 0 0 0 0 0 0 0 0 0 0 0 127 0" result="hardAlpha"/>
<feMorphology radius="1" operator="dilate" in="SourceAlpha" result="effect1_dropShadow_410_20"/>
<feOffset dy="4"/>
<feGaussianBlur stdDeviation="2.5"/>
<feComposite in2="hardAlpha" operator="out"/>
<feColorMatrix type="matrix" values="0 0 0 0 1 0 0 0 0 1 0 0 0 0 1 0 0 0 0.15 0"/>
<feBlend mode="normal" in2="BackgroundImageFix" result="effect1_dropShadow_410_20"/>
<feBlend mode="normal" in="SourceGraphic" in2="effect1_dropShadow_410_20" result="shape"/>
</filter>
<filter id="filter2_d_410_20" x="0" y="20" width="18" height="18" filterUnits="userSpaceOnUse" color-interpolation-filters="sRGB">
<feFlood flood-opacity="0" result="BackgroundImageFix"/>
<feColorMatrix in="SourceAlpha" type="matrix" values="0 0 0 0 0 0 0 0 0 0 0 0 0 0 0 0 0 0 127 0" result="hardAlpha"/>
<feMorphology radius="1" operator="dilate" in="SourceAlpha" result="effect1_dropShadow_410_20"/>
<feOffset dy="4"/>
<feGaussianBlur stdDeviation="2.5"/>
<feComposite in2="hardAlpha" operator="out"/>
<feColorMatrix type="matrix" values="0 0 0 0 1 0 0 0 0 1 0 0 0 0 1 0 0 0 0.15 0"/>
<feBlend mode="normal" in2="BackgroundImageFix" result="effect1_dropShadow_410_20"/>
<feBlend mode="normal" in="SourceGraphic" in2="effect1_dropShadow_410_20" result="shape"/>
</filter>
<filter id="filter3_d_410_20" x="11" y="0" width="18" height="18" filterUnits="userSpaceOnUse" color-interpolation-filters="sRGB">
<feFlood flood-opacity="0" result="BackgroundImageFix"/>
<feColorMatrix in="SourceAlpha" type="matrix" values="0 0 0 0 0 0 0 0 0 0 0 0 0 0 0 0 0 0 127 0" result="hardAlpha"/>
<feMorphology radius="1" operator="dilate" in="SourceAlpha" result="effect1_dropShadow_410_20"/>
<feOffset dy="4"/>
<feGaussianBlur stdDeviation="2.5"/>
<feComposite in2="hardAlpha" operator="out"/>
<feColorMatrix type="matrix" values="0 0 0 0 1 0 0 0 0 1 0 0 0 0 1 0 0 0 0.15 0"/>
<feBlend mode="normal" in2="BackgroundImageFix" result="effect1_dropShadow_410_20"/>
<feBlend mode="normal" in="SourceGraphic" in2="effect1_dropShadow_410_20" result="shape"/>
</filter>
<filter id="filter4_d_410_20" x="11" y="10" width="18" height="18" filterUnits="userSpaceOnUse" color-interpolation-filters="sRGB">
<feFlood flood-opacity="0" result="BackgroundImageFix"/>
<feColorMatrix in="SourceAlpha" type="matrix" values="0 0 0 0 0 0 0 0 0 0 0 0 0 0 0 0 0 0 127 0" result="hardAlpha"/>
<feMorphology radius="1" operator="dilate" in="SourceAlpha" result="effect1_dropShadow_410_20"/>
<feOffset dy="4"/>
<feGaussianBlur stdDeviation="2.5"/>
<feComposite in2="hardAlpha" operator="out"/>
<feColorMatrix type="matrix" values="0 0 0 0 1 0 0 0 0 1 0 0 0 0 1 0 0 0 0.15 0"/>
<feBlend mode="normal" in2="BackgroundImageFix" result="effect1_dropShadow_410_20"/>
<feBlend mode="normal" in="SourceGraphic" in2="effect1_dropShadow_410_20" result="shape"/>
</filter>
<filter id="filter5_d_410_20" x="11" y="20" width="18" height="18" filterUnits="userSpaceOnUse" color-interpolation-filters="sRGB">
<feFlood flood-opacity="0" result="BackgroundImageFix"/>
<feColorMatrix in="SourceAlpha" type="matrix" values="0 0 0 0 0 0 0 0 0 0 0 0 0 0 0 0 0 0 127 0" result="hardAlpha"/>
<feMorphology radius="1" operator="dilate" in="SourceAlpha" result="effect1_dropShadow_410_20"/>
<feOffset dy="4"/>
<feGaussianBlur stdDeviation="2.5"/>
<feComposite in2="hardAlpha" operator="out"/>
<feColorMatrix type="matrix" values="0 0 0 0 1 0 0 0 0 1 0 0 0 0 1 0 0 0 0.15 0"/>
<feBlend mode="normal" in2="BackgroundImageFix" result="effect1_dropShadow_410_20"/>
<feBlend mode="normal" in="SourceGraphic" in2="effect1_dropShadow_410_20" result="shape"/>
</filter>
<filter id="filter6_d_410_20" x="22" y="0" width="18" height="18" filterUnits="userSpaceOnUse" color-interpolation-filters="sRGB">
<feFlood flood-opacity="0" result="BackgroundImageFix"/>
<feColorMatrix in="SourceAlpha" type="matrix" values="0 0 0 0 0 0 0 0 0 0 0 0 0 0 0 0 0 0 127 0" result="hardAlpha"/>
<feMorphology radius="1" operator="dilate" in="SourceAlpha" result="effect1_dropShadow_410_20"/>
<feOffset dy="4"/>
<feGaussianBlur stdDeviation="2.5"/>
<feComposite in2="hardAlpha" operator="out"/>
<feColorMatrix type="matrix" values="0 0 0 0 1 0 0 0 0 1 0 0 0 0 1 0 0 0 0.15 0"/>
<feBlend mode="normal" in2="BackgroundImageFix" result="effect1_dropShadow_410_20"/>
<feBlend mode="normal" in="SourceGraphic" in2="effect1_dropShadow_410_20" result="shape"/>
</filter>
<filter id="filter7_d_410_20" x="22" y="10" width="18" height="18" filterUnits="userSpaceOnUse" color-interpolation-filters="sRGB">
<feFlood flood-opacity="0" result="BackgroundImageFix"/>
<feColorMatrix in="SourceAlpha" type="matrix" values="0 0 0 0 0 0 0 0 0 0 0 0 0 0 0 0 0 0 127 0" result="hardAlpha"/>
<feMorphology radius="1" operator="dilate" in="SourceAlpha" result="effect1_dropShadow_410_20"/>
<feOffset dy="4"/>
<feGaussianBlur stdDeviation="2.5"/>
<feComposite in2="hardAlpha" operator="out"/>
<feColorMatrix type="matrix" values="0 0 0 0 1 0 0 0 0 1 0 0 0 0 1 0 0 0 0.15 0"/>
<feBlend mode="normal" in2="BackgroundImageFix" result="effect1_dropShadow_410_20"/>
<feBlend mode="normal" in="SourceGraphic" in2="effect1_dropShadow_410_20" result="shape"/>
</filter>
<filter id="filter8_d_410_20" x="22" y="20" width="18" height="18" filterUnits="userSpaceOnUse" color-interpolation-filters="sRGB">
<feFlood flood-opacity="0" result="BackgroundImageFix"/>
<feColorMatrix in="SourceAlpha" type="matrix" values="0 0 0 0 0 0 0 0 0 0 0 0 0 0 0 0 0 0 127 0" result="hardAlpha"/>
<feMorphology radius="1" operator="dilate" in="SourceAlpha" result="effect1_dropShadow_410_20"/>
<feOffset dy="4"/>
<feGaussianBlur stdDeviation="2.5"/>
<feComposite in2="hardAlpha" operator="out"/>
<feColorMatrix type="matrix" values="0 0 0 0 1 0 0 0 0 1 0 0 0 0 1 0 0 0 0.15 0"/>
<feBlend mode="normal" in2="BackgroundImageFix" result="effect1_dropShadow_410_20"/>
<feBlend mode="normal" in="SourceGraphic" in2="effect1_dropShadow_410_20" result="shape"/>
</filter>
</defs>
</svg>
