<svg width="301" height="79" viewBox="0 0 301 79" fill="none" xmlns="http://www.w3.org/2000/svg">
<g filter="url(#filter0_d_438_37)">
<circle cx="11" cy="27" r="4" fill="white" fill-opacity="0.25" shape-rendering="crispEdges"/>
</g>
<g filter="url(#filter1_d_438_37)">
<circle cx="11" cy="38" r="4" fill="white" fill-opacity="0.25" shape-rendering="crispEdges"/>
</g>
<g filter="url(#filter2_d_438_37)">
<circle cx="11" cy="49" r="4" fill="white" fill-opacity="0.25" shape-rendering="crispEdges"/>
</g>
<g filter="url(#filter3_d_438_37)">
<circle cx="23" cy="27" r="4" fill="white" fill-opacity="0.25" shape-rendering="crispEdges"/>
</g>
<g filter="url(#filter4_d_438_37)">
<circle cx="23" cy="38" r="4" fill="white" fill-opacity="0.25" shape-rendering="crispEdges"/>
</g>
<g filter="url(#filter5_d_438_37)">
<circle cx="23" cy="49" r="4" fill="white" fill-opacity="0.25" shape-rendering="crispEdges"/>
</g>
<g filter="url(#filter6_d_438_37)">
<circle cx="35" cy="27" r="4" fill="white" fill-opacity="0.25" shape-rendering="crispEdges"/>
</g>
<g filter="url(#filter7_d_438_37)">
<circle cx="35" cy="38" r="4" fill="white" fill-opacity="0.25" shape-rendering="crispEdges"/>
</g>
<g filter="url(#filter8_d_438_37)">
<circle cx="35" cy="49" r="4" fill="white" fill-opacity="0.25" shape-rendering="crispEdges"/>
</g>
<line x1="51.5" y1="28" x2="51.5" y2="52" stroke="white" stroke-opacity="0.15"/>
<path d="M68.635 34.925L68.89 33.95C69.13 34.03 69.345 34.09 69.535 34.13C69.725 34.17 69.9 34.19 70.06 34.19C70.5 34.19 70.85 34.035 71.11 33.725C71.38 33.405 71.63 32.975 71.86 32.435L71.77 32.975L68.185 25.28L68.5 25.505L67.09 25.25V24.605L71.02 24.53V25.175L69.385 25.49L69.535 25.175L72.355 31.715L72.205 31.775L74.86 25.235L74.965 25.505L73.36 25.25V24.605L77.08 24.53V25.175L75.67 25.49L75.985 25.235L73.03 32.3C72.77 32.92 72.495 33.45 72.205 33.89C71.915 34.32 71.595 34.65 71.245 34.88C70.895 35.1 70.49 35.21 70.03 35.21C69.82 35.21 69.6 35.185 69.37 35.135C69.14 35.085 68.895 35.015 68.635 34.925ZM81.5179 35V34.355L82.9429 34.025L82.6879 34.415V27.65L83.0029 28.085L81.5179 27.755V27.125L83.8129 27.08H90.2629V27.725L88.8229 28.085L89.0929 27.665V34.415L88.8379 34.025L90.2629 34.355V35H86.7679V34.355L88.1179 34.055L87.8929 34.415V27.65L88.2229 27.995L83.5579 27.98L83.8879 27.65V34.415L83.6629 34.055L85.0129 34.355V35H81.5179ZM95.7263 38.45V37.805L97.0913 37.49L96.8963 37.715V27.86L97.0763 28.055L95.7263 27.77V27.125L97.8263 27.02L97.9763 28.325L97.8413 28.235C98.3013 27.805 98.7613 27.485 99.2213 27.275C99.6813 27.055 100.136 26.945 100.586 26.945C101.146 26.945 101.646 27.1 102.086 27.41C102.536 27.72 102.891 28.17 103.151 28.76C103.411 29.34 103.541 30.055 103.541 30.905C103.541 31.825 103.381 32.6 103.061 33.23C102.751 33.86 102.311 34.34 101.741 34.67C101.171 34.99 100.501 35.15 99.7313 35.15C99.4513 35.15 99.1613 35.125 98.8613 35.075C98.5613 35.025 98.2463 34.96 97.9163 34.88L98.0963 34.715V37.715L97.9313 37.505L99.4763 37.805V38.45H95.7263ZM99.5963 34.25C100.476 34.25 101.146 33.965 101.606 33.395C102.066 32.825 102.296 32.035 102.296 31.025C102.296 30.365 102.201 29.8 102.011 29.33C101.831 28.86 101.581 28.5 101.261 28.25C100.941 27.99 100.576 27.86 100.166 27.86C99.8163 27.86 99.4513 27.955 99.0713 28.145C98.7013 28.325 98.3263 28.605 97.9463 28.985L98.0963 28.61V34.235L97.9313 33.965C98.5413 34.155 99.0963 34.25 99.5963 34.25ZM115.492 34.325L115.297 34.055L116.677 34.325V34.985L114.577 35.075L114.397 33.635L114.502 33.68C114.062 34.16 113.587 34.525 113.077 34.775C112.567 35.015 112.072 35.135 111.592 35.135C111.012 35.135 110.522 34.95 110.122 34.58C109.722 34.21 109.522 33.65 109.522 32.9C109.522 32.31 109.647 31.86 109.897 31.55C110.147 31.23 110.492 31.005 110.932 30.875C111.372 30.745 111.882 30.68 112.462 30.68H114.427L114.292 30.83V29.39C114.292 28.84 114.147 28.45 113.857 28.22C113.567 27.98 113.167 27.86 112.657 27.86C112.387 27.86 112.097 27.89 111.787 27.95C111.487 28 111.167 28.085 110.827 28.205L111.007 28.01L110.857 29.375H110.062L109.942 27.515C110.512 27.325 111.047 27.185 111.547 27.095C112.047 26.995 112.507 26.945 112.927 26.945C113.727 26.945 114.352 27.125 114.802 27.485C115.262 27.835 115.492 28.4 115.492 29.18V34.325ZM110.737 32.795C110.737 33.285 110.852 33.645 111.082 33.875C111.322 34.105 111.622 34.22 111.982 34.22C112.332 34.22 112.717 34.115 113.137 33.905C113.567 33.685 113.982 33.39 114.382 33.02L114.292 33.335V31.325L114.427 31.46H112.642C111.932 31.46 111.437 31.57 111.157 31.79C110.877 32 110.737 32.335 110.737 32.795ZM124.415 27.08H125.915C126.555 27.08 127.095 27.145 127.535 27.275C127.975 27.405 128.305 27.61 128.525 27.89C128.755 28.16 128.87 28.52 128.87 28.97C128.87 29.38 128.77 29.72 128.57 29.99C128.38 30.26 128.095 30.47 127.715 30.62C127.335 30.76 126.855 30.855 126.275 30.905L126.335 30.785C126.785 30.785 127.185 30.825 127.535 30.905C127.885 30.985 128.185 31.11 128.435 31.28C128.695 31.45 128.89 31.665 129.02 31.925C129.16 32.175 129.23 32.485 129.23 32.855C129.23 33.575 128.95 34.115 128.39 34.475C127.84 34.825 126.975 35 125.795 35H122.045V34.355L123.35 34.07L123.215 34.235V27.905L123.335 28.04L122.045 27.77V27.125L124.415 27.08ZM125.675 27.905H124.205L124.415 27.695V30.71L124.205 30.53H125.3C126.14 30.53 126.745 30.415 127.115 30.185C127.485 29.955 127.67 29.61 127.67 29.15C127.67 28.7 127.505 28.38 127.175 28.19C126.845 28 126.345 27.905 125.675 27.905ZM125.66 34.16C126.47 34.16 127.055 34.05 127.415 33.83C127.785 33.61 127.97 33.245 127.97 32.735C127.97 32.245 127.805 31.87 127.475 31.61C127.155 31.35 126.65 31.22 125.96 31.22H124.205L124.415 31.025V34.355L124.205 34.16H125.66ZM135.256 35.12C135.116 35.12 134.971 35.105 134.821 35.075C134.671 35.055 134.506 35.02 134.326 34.97L134.506 33.995C134.586 34.005 134.661 34.015 134.731 34.025C134.811 34.035 134.886 34.04 134.956 34.04C135.526 34.04 135.946 33.79 136.216 33.29C136.496 32.78 136.681 32.05 136.771 31.1C136.871 30.15 136.926 29.01 136.936 27.68L137.251 28.04L135.631 27.725V27.08H142.621V27.725L141.181 28.055L141.451 27.68V34.235L141.316 34.07L142.621 34.355V35H139.066V34.355L140.371 34.07L140.251 34.235V27.65L140.461 27.995H137.506L137.881 27.65C137.871 28.82 137.826 29.865 137.746 30.785C137.676 31.705 137.546 32.49 137.356 33.14C137.166 33.78 136.901 34.27 136.561 34.61C136.221 34.95 135.786 35.12 135.256 35.12ZM151.812 35.135C151.142 35.135 150.547 34.985 150.027 34.685C149.517 34.375 149.117 33.925 148.827 33.335C148.537 32.745 148.392 32.025 148.392 31.175C148.392 30.305 148.542 29.555 148.842 28.925C149.142 28.295 149.567 27.81 150.117 27.47C150.667 27.12 151.312 26.945 152.052 26.945C152.752 26.945 153.327 27.095 153.777 27.395C154.237 27.685 154.577 28.09 154.797 28.61C155.027 29.13 155.142 29.725 155.142 30.395C155.142 30.505 155.137 30.615 155.127 30.725C155.117 30.835 155.102 30.97 155.082 31.13H149.307V30.275H154.032L153.897 30.365C153.907 29.915 153.852 29.5 153.732 29.12C153.612 28.74 153.407 28.435 153.117 28.205C152.827 27.975 152.442 27.86 151.962 27.86C151.452 27.86 151.022 27.995 150.672 28.265C150.322 28.535 150.062 28.905 149.892 29.375C149.722 29.845 149.637 30.39 149.637 31.01C149.637 31.67 149.732 32.24 149.922 32.72C150.112 33.19 150.387 33.555 150.747 33.815C151.117 34.075 151.567 34.205 152.097 34.205C152.467 34.205 152.872 34.135 153.312 33.995C153.752 33.845 154.207 33.62 154.677 33.32L155.112 33.995C154.552 34.375 153.992 34.66 153.432 34.85C152.872 35.04 152.332 35.135 151.812 35.135ZM160.945 35V34.355L162.37 34.025L162.115 34.415V27.695L162.43 28.085L160.945 27.755V27.125L164.455 27.035V27.665L163.03 28.04L163.315 27.68V30.74L162.985 30.41H167.725L167.38 30.74V27.695L167.59 28.025L166.24 27.755V27.125L169.765 27.035V27.665L168.325 28.04L168.58 27.68V34.415L168.325 34.025L169.765 34.355V35H166.24V34.355L167.605 34.055L167.38 34.415V30.98L167.725 31.31H162.985L163.315 30.98V34.415L163.09 34.055L164.455 34.355V35H160.945ZM175.362 35V34.355L176.787 34.025L176.532 34.295V27.8L176.847 28.085L175.362 27.755V27.125L178.827 27.035V27.665L177.402 28.04L177.687 27.77V32.885L177.477 32.87L181.992 28.145L181.857 28.43L181.842 27.8L182.052 28.025L180.702 27.755V27.125L184.167 27.035V27.665L182.727 28.04L182.997 27.77V34.295L182.742 34.025L184.167 34.355V35H180.702V34.355L182.067 34.055L181.842 34.295V29.015L182.037 29.12L177.537 33.905L177.687 33.635V34.295L177.567 34.1L178.827 34.355V35H175.362ZM193.364 35.135C192.694 35.135 192.099 34.985 191.579 34.685C191.069 34.375 190.669 33.925 190.379 33.335C190.089 32.745 189.944 32.025 189.944 31.175C189.944 30.305 190.094 29.555 190.394 28.925C190.694 28.295 191.119 27.81 191.669 27.47C192.219 27.12 192.864 26.945 193.604 26.945C194.304 26.945 194.879 27.095 195.329 27.395C195.789 27.685 196.129 28.09 196.349 28.61C196.579 29.13 196.694 29.725 196.694 30.395C196.694 30.505 196.689 30.615 196.679 30.725C196.669 30.835 196.654 30.97 196.634 31.13H190.859V30.275H195.584L195.449 30.365C195.459 29.915 195.404 29.5 195.284 29.12C195.164 28.74 194.959 28.435 194.669 28.205C194.379 27.975 193.994 27.86 193.514 27.86C193.004 27.86 192.574 27.995 192.224 28.265C191.874 28.535 191.614 28.905 191.444 29.375C191.274 29.845 191.189 30.39 191.189 31.01C191.189 31.67 191.284 32.24 191.474 32.72C191.664 33.19 191.939 33.555 192.299 33.815C192.669 34.075 193.119 34.205 193.649 34.205C194.019 34.205 194.424 34.135 194.864 33.995C195.304 33.845 195.759 33.62 196.229 33.32L196.664 33.995C196.104 34.375 195.544 34.66 194.984 34.85C194.424 35.04 193.884 35.135 193.364 35.135ZM70.195 53.135C69.735 53.135 69.275 53.08 68.815 52.97C68.355 52.86 67.93 52.695 67.54 52.475L67.825 51.695C68.175 51.885 68.55 52.035 68.95 52.145C69.36 52.245 69.755 52.295 70.135 52.295C70.525 52.295 70.885 52.24 71.215 52.13C71.555 52.02 71.825 51.85 72.025 51.62C72.225 51.39 72.325 51.09 72.325 50.72C72.325 50.44 72.255 50.19 72.115 49.97C71.975 49.75 71.74 49.575 71.41 49.445C71.09 49.315 70.655 49.25 70.105 49.25H69.115V48.5H70.105C70.825 48.5 71.35 48.375 71.68 48.125C72.01 47.865 72.175 47.52 72.175 47.09C72.175 46.61 72 46.27 71.65 46.07C71.31 45.87 70.88 45.77 70.36 45.77C70.07 45.77 69.77 45.795 69.46 45.845C69.15 45.895 68.835 45.96 68.515 46.04L68.8 45.74L68.605 47.18H67.81L67.75 45.395C68.23 45.255 68.705 45.145 69.175 45.065C69.655 44.985 70.115 44.945 70.555 44.945C71.085 44.945 71.565 45.015 71.995 45.155C72.425 45.285 72.76 45.5 73 45.8C73.25 46.09 73.375 46.47 73.375 46.94C73.375 47.52 73.185 47.97 72.805 48.29C72.435 48.6 71.85 48.8 71.05 48.89L71.02 48.785C71.91 48.825 72.555 49.025 72.955 49.385C73.365 49.735 73.57 50.195 73.57 50.765C73.57 51.305 73.41 51.755 73.09 52.115C72.77 52.465 72.355 52.725 71.845 52.895C71.335 53.055 70.785 53.135 70.195 53.135ZM85.6032 52.325L85.4082 52.055L86.7882 52.325V52.985L84.6882 53.075L84.5082 51.635L84.6132 51.68C84.1732 52.16 83.6982 52.525 83.1882 52.775C82.6782 53.015 82.1832 53.135 81.7032 53.135C81.1232 53.135 80.6332 52.95 80.2332 52.58C79.8332 52.21 79.6332 51.65 79.6332 50.9C79.6332 50.31 79.7582 49.86 80.0082 49.55C80.2582 49.23 80.6032 49.005 81.0432 48.875C81.4832 48.745 81.9932 48.68 82.5732 48.68H84.5382L84.4032 48.83V47.39C84.4032 46.84 84.2582 46.45 83.9682 46.22C83.6782 45.98 83.2782 45.86 82.7682 45.86C82.4982 45.86 82.2082 45.89 81.8982 45.95C81.5982 46 81.2782 46.085 80.9382 46.205L81.1182 46.01L80.9682 47.375H80.1732L80.0532 45.515C80.6232 45.325 81.1582 45.185 81.6582 45.095C82.1582 44.995 82.6182 44.945 83.0382 44.945C83.8382 44.945 84.4632 45.125 84.9132 45.485C85.3732 45.835 85.6032 46.4 85.6032 47.18V52.325ZM80.8482 50.795C80.8482 51.285 80.9632 51.645 81.1932 51.875C81.4332 52.105 81.7332 52.22 82.0932 52.22C82.4432 52.22 82.8282 52.115 83.2482 51.905C83.6782 51.685 84.0932 51.39 84.4932 51.02L84.4032 51.335V49.325L84.5382 49.46H82.7532C82.0432 49.46 81.5482 49.57 81.2682 49.79C80.9882 50 80.8482 50.335 80.8482 50.795ZM98.4709 45.08L98.4259 47.66H97.6759L97.4509 45.785L97.6309 45.995H94.4359L94.5259 45.8V52.295L94.3459 52.07L96.0259 52.355V53H92.1559V52.355L93.4759 52.07L93.3259 52.295V45.83L93.4909 46.055L92.1559 45.77V45.125L94.2559 45.08H98.4709ZM103.42 56.45V55.805L104.785 55.49L104.59 55.715V45.86L104.77 46.055L103.42 45.77V45.125L105.52 45.02L105.67 46.325L105.535 46.235C105.995 45.805 106.455 45.485 106.915 45.275C107.375 45.055 107.83 44.945 108.28 44.945C108.84 44.945 109.34 45.1 109.78 45.41C110.23 45.72 110.585 46.17 110.845 46.76C111.105 47.34 111.235 48.055 111.235 48.905C111.235 49.825 111.075 50.6 110.755 51.23C110.445 51.86 110.005 52.34 109.435 52.67C108.865 52.99 108.195 53.15 107.425 53.15C107.145 53.15 106.855 53.125 106.555 53.075C106.255 53.025 105.94 52.96 105.61 52.88L105.79 52.715V55.715L105.625 55.505L107.17 55.805V56.45H103.42ZM107.29 52.25C108.17 52.25 108.84 51.965 109.3 51.395C109.76 50.825 109.99 50.035 109.99 49.025C109.99 48.365 109.895 47.8 109.705 47.33C109.525 46.86 109.275 46.5 108.955 46.25C108.635 45.99 108.27 45.86 107.86 45.86C107.51 45.86 107.145 45.955 106.765 46.145C106.395 46.325 106.02 46.605 105.64 46.985L105.79 46.61V52.235L105.625 51.965C106.235 52.155 106.79 52.25 107.29 52.25ZM116.368 56.51L116.473 55.625C116.593 55.645 116.703 55.66 116.803 55.67C116.913 55.68 117.013 55.685 117.103 55.685C117.593 55.685 117.988 55.57 118.288 55.34C118.598 55.12 118.858 54.785 119.068 54.335C119.278 53.885 119.493 53.325 119.713 52.655L119.668 53.105L116.863 45.8L117.028 45.935L116.053 45.77V45.125L119.338 45.02V45.68L117.988 45.905L118.078 45.77L120.313 52.145L120.043 52.085L122.188 45.8L122.278 45.935L120.958 45.77V45.125L124.138 45.02V45.68L123.088 45.92L123.298 45.785L120.658 53.03C120.478 53.53 120.288 53.995 120.088 54.425C119.898 54.855 119.678 55.23 119.428 55.55C119.178 55.88 118.873 56.135 118.513 56.315C118.153 56.495 117.718 56.585 117.208 56.585C116.978 56.585 116.698 56.56 116.368 56.51ZM131.616 53.135C131.156 53.135 130.696 53.08 130.236 52.97C129.776 52.86 129.351 52.695 128.961 52.475L129.246 51.695C129.596 51.885 129.971 52.035 130.371 52.145C130.781 52.245 131.176 52.295 131.556 52.295C131.946 52.295 132.306 52.24 132.636 52.13C132.976 52.02 133.246 51.85 133.446 51.62C133.646 51.39 133.746 51.09 133.746 50.72C133.746 50.44 133.676 50.19 133.536 49.97C133.396 49.75 133.161 49.575 132.831 49.445C132.511 49.315 132.076 49.25 131.526 49.25H130.536V48.5H131.526C132.246 48.5 132.771 48.375 133.101 48.125C133.431 47.865 133.596 47.52 133.596 47.09C133.596 46.61 133.421 46.27 133.071 46.07C132.731 45.87 132.301 45.77 131.781 45.77C131.491 45.77 131.191 45.795 130.881 45.845C130.571 45.895 130.256 45.96 129.936 46.04L130.221 45.74L130.026 47.18H129.231L129.171 45.395C129.651 45.255 130.126 45.145 130.596 45.065C131.076 44.985 131.536 44.945 131.976 44.945C132.506 44.945 132.986 45.015 133.416 45.155C133.846 45.285 134.181 45.5 134.421 45.8C134.671 46.09 134.796 46.47 134.796 46.94C134.796 47.52 134.606 47.97 134.226 48.29C133.856 48.6 133.271 48.8 132.471 48.89L132.441 48.785C133.331 48.825 133.976 49.025 134.376 49.385C134.786 49.735 134.991 50.195 134.991 50.765C134.991 51.305 134.831 51.755 134.511 52.115C134.191 52.465 133.776 52.725 133.266 52.895C132.756 53.055 132.206 53.135 131.616 53.135ZM140.698 53V52.355L142.048 52.055L141.868 52.31V45.755L142.063 46.025L140.698 45.755V45.125L144.178 45.035V45.665L142.918 45.98L143.068 45.755V48.695L142.843 48.425H144.973L144.568 48.65L146.278 45.785L146.383 45.95L145.138 45.77V45.125L148.438 45.02V45.665L147.103 45.935L147.448 45.71L145.498 48.95L145.573 48.59L147.808 52.265L147.613 52.1L148.858 52.355V53H146.953L144.703 49.19L144.943 49.265H142.843L143.068 49.175V52.31L142.918 52.055L144.358 52.355V53H140.698ZM157.329 44.945C158.429 44.945 159.289 45.29 159.909 45.98C160.539 46.67 160.854 47.645 160.854 48.905C160.854 49.755 160.699 50.5 160.389 51.14C160.089 51.77 159.659 52.26 159.099 52.61C158.539 52.96 157.864 53.135 157.074 53.135C155.994 53.135 155.149 52.8 154.539 52.13C153.929 51.45 153.624 50.475 153.624 49.205C153.624 48.325 153.769 47.57 154.059 46.94C154.359 46.3 154.784 45.81 155.334 45.47C155.894 45.12 156.559 44.945 157.329 44.945ZM157.269 45.83C156.499 45.83 155.909 46.12 155.499 46.7C155.089 47.28 154.884 48.095 154.884 49.145C154.884 50.175 155.079 50.95 155.469 51.47C155.859 51.99 156.419 52.25 157.149 52.25C157.679 52.25 158.124 52.12 158.484 51.86C158.854 51.59 159.129 51.21 159.309 50.72C159.499 50.23 159.594 49.645 159.594 48.965C159.594 47.945 159.389 47.17 158.979 46.64C158.579 46.1 158.009 45.83 157.269 45.83ZM166.602 53V52.355L168.027 52.025L167.772 52.295V45.8L168.087 46.085L166.602 45.755V45.125L170.067 45.035V45.665L168.642 46.04L168.927 45.77V50.885L168.717 50.87L173.232 46.145L173.097 46.43L173.082 45.8L173.292 46.025L171.942 45.755V45.125L175.407 45.035V45.665L173.967 46.04L174.237 45.77V52.295L173.982 52.025L175.407 52.355V53H171.942V52.355L173.307 52.055L173.082 52.295V47.015L173.277 47.12L168.777 51.905L168.927 51.635V52.295L168.807 52.1L170.067 52.355V53H166.602ZM171.012 43.385C170.622 43.385 170.257 43.32 169.917 43.19C169.587 43.06 169.317 42.86 169.107 42.59C168.897 42.32 168.777 41.97 168.747 41.54L169.902 41.465C169.932 41.895 170.067 42.21 170.307 42.41C170.557 42.6 170.852 42.695 171.192 42.695C171.522 42.695 171.797 42.6 172.017 42.41C172.237 42.22 172.342 41.92 172.332 41.51L173.247 41.465C173.247 41.905 173.142 42.27 172.932 42.56C172.732 42.84 172.462 43.05 172.122 43.19C171.792 43.32 171.422 43.385 171.012 43.385ZM188.372 56.45V55.805L189.737 55.49L189.542 55.715V45.86L189.722 46.055L188.372 45.77V45.125L190.472 45.02L190.622 46.325L190.487 46.235C190.947 45.805 191.407 45.485 191.867 45.275C192.327 45.055 192.782 44.945 193.232 44.945C193.792 44.945 194.292 45.1 194.732 45.41C195.182 45.72 195.537 46.17 195.797 46.76C196.057 47.34 196.187 48.055 196.187 48.905C196.187 49.825 196.027 50.6 195.707 51.23C195.397 51.86 194.957 52.34 194.387 52.67C193.817 52.99 193.147 53.15 192.377 53.15C192.097 53.15 191.807 53.125 191.507 53.075C191.207 53.025 190.892 52.96 190.562 52.88L190.742 52.715V55.715L190.577 55.505L192.122 55.805V56.45H188.372ZM192.242 52.25C193.122 52.25 193.792 51.965 194.252 51.395C194.712 50.825 194.942 50.035 194.942 49.025C194.942 48.365 194.847 47.8 194.657 47.33C194.477 46.86 194.227 46.5 193.907 46.25C193.587 45.99 193.222 45.86 192.812 45.86C192.462 45.86 192.097 45.955 191.717 46.145C191.347 46.325 190.972 46.605 190.592 46.985L190.742 46.61V52.235L190.577 51.965C191.187 52.155 191.742 52.25 192.242 52.25ZM205.542 53.135C204.872 53.135 204.277 52.985 203.757 52.685C203.247 52.375 202.847 51.925 202.557 51.335C202.267 50.745 202.122 50.025 202.122 49.175C202.122 48.305 202.272 47.555 202.572 46.925C202.872 46.295 203.297 45.81 203.847 45.47C204.397 45.12 205.042 44.945 205.782 44.945C206.482 44.945 207.057 45.095 207.507 45.395C207.967 45.685 208.307 46.09 208.527 46.61C208.757 47.13 208.872 47.725 208.872 48.395C208.872 48.505 208.867 48.615 208.857 48.725C208.847 48.835 208.832 48.97 208.812 49.13H203.037V48.275H207.762L207.627 48.365C207.637 47.915 207.582 47.5 207.462 47.12C207.342 46.74 207.137 46.435 206.847 46.205C206.557 45.975 206.172 45.86 205.692 45.86C205.182 45.86 204.752 45.995 204.402 46.265C204.052 46.535 203.792 46.905 203.622 47.375C203.452 47.845 203.367 48.39 203.367 49.01C203.367 49.67 203.462 50.24 203.652 50.72C203.842 51.19 204.117 51.555 204.477 51.815C204.847 52.075 205.297 52.205 205.827 52.205C206.197 52.205 206.602 52.135 207.042 51.995C207.482 51.845 207.937 51.62 208.407 51.32L208.842 51.995C208.282 52.375 207.722 52.66 207.162 52.85C206.602 53.04 206.062 53.135 205.542 53.135ZM218.2 53.135C217.56 53.135 216.98 52.98 216.46 52.67C215.95 52.35 215.545 51.89 215.245 51.29C214.955 50.69 214.81 49.97 214.81 49.13C214.81 48.4 214.91 47.775 215.11 47.255C215.32 46.725 215.6 46.29 215.95 45.95C216.3 45.61 216.7 45.36 217.15 45.2C217.61 45.03 218.085 44.945 218.575 44.945C218.975 44.945 219.4 45 219.85 45.11C220.31 45.22 220.71 45.37 221.05 45.56L220.99 47.435H220.18L219.985 46.025L220.105 46.16C219.855 46.04 219.59 45.955 219.31 45.905C219.03 45.855 218.78 45.83 218.56 45.83C218.04 45.83 217.59 45.965 217.21 46.235C216.84 46.495 216.555 46.865 216.355 47.345C216.155 47.825 216.055 48.395 216.055 49.055C216.055 49.735 216.16 50.31 216.37 50.78C216.58 51.25 216.865 51.605 217.225 51.845C217.595 52.085 218.01 52.205 218.47 52.205C218.83 52.205 219.21 52.13 219.61 51.98C220.01 51.83 220.425 51.605 220.855 51.305L221.275 51.965C220.755 52.365 220.235 52.66 219.715 52.85C219.195 53.04 218.69 53.135 218.2 53.135ZM226.287 56.51L226.392 55.625C226.512 55.645 226.622 55.66 226.722 55.67C226.832 55.68 226.932 55.685 227.022 55.685C227.512 55.685 227.907 55.57 228.207 55.34C228.517 55.12 228.777 54.785 228.987 54.335C229.197 53.885 229.412 53.325 229.632 52.655L229.587 53.105L226.782 45.8L226.947 45.935L225.972 45.77V45.125L229.257 45.02V45.68L227.907 45.905L227.997 45.77L230.232 52.145L229.962 52.085L232.107 45.8L232.197 45.935L230.877 45.77V45.125L234.057 45.02V45.68L233.007 45.92L233.217 45.785L230.577 53.03C230.397 53.53 230.207 53.995 230.007 54.425C229.817 54.855 229.597 55.23 229.347 55.55C229.097 55.88 228.792 56.135 228.432 56.315C228.072 56.495 227.637 56.585 227.127 56.585C226.897 56.585 226.617 56.56 226.287 56.51ZM238.803 56.45V55.805L240.168 55.49L239.973 55.715V45.86L240.153 46.055L238.803 45.77V45.125L240.903 45.02L241.053 46.325L240.918 46.235C241.378 45.805 241.838 45.485 242.298 45.275C242.758 45.055 243.213 44.945 243.663 44.945C244.223 44.945 244.723 45.1 245.163 45.41C245.613 45.72 245.968 46.17 246.228 46.76C246.488 47.34 246.618 48.055 246.618 48.905C246.618 49.825 246.458 50.6 246.138 51.23C245.828 51.86 245.388 52.34 244.818 52.67C244.248 52.99 243.578 53.15 242.808 53.15C242.528 53.15 242.238 53.125 241.938 53.075C241.638 53.025 241.323 52.96 240.993 52.88L241.173 52.715V55.715L241.008 55.505L242.553 55.805V56.45H238.803ZM242.673 52.25C243.553 52.25 244.223 51.965 244.683 51.395C245.143 50.825 245.373 50.035 245.373 49.025C245.373 48.365 245.278 47.8 245.088 47.33C244.908 46.86 244.658 46.5 244.338 46.25C244.018 45.99 243.653 45.86 243.243 45.86C242.893 45.86 242.528 45.955 242.148 46.145C241.778 46.325 241.403 46.605 241.023 46.985L241.173 46.61V52.235L241.008 51.965C241.618 52.155 242.173 52.25 242.673 52.25ZM255.914 53.135C255.274 53.135 254.694 52.98 254.174 52.67C253.664 52.35 253.259 51.89 252.959 51.29C252.669 50.69 252.524 49.97 252.524 49.13C252.524 48.4 252.624 47.775 252.824 47.255C253.034 46.725 253.314 46.29 253.664 45.95C254.014 45.61 254.414 45.36 254.864 45.2C255.324 45.03 255.799 44.945 256.289 44.945C256.689 44.945 257.114 45 257.564 45.11C258.024 45.22 258.424 45.37 258.764 45.56L258.704 47.435H257.894L257.699 46.025L257.819 46.16C257.569 46.04 257.304 45.955 257.024 45.905C256.744 45.855 256.494 45.83 256.274 45.83C255.754 45.83 255.304 45.965 254.924 46.235C254.554 46.495 254.269 46.865 254.069 47.345C253.869 47.825 253.769 48.395 253.769 49.055C253.769 49.735 253.874 50.31 254.084 50.78C254.294 51.25 254.579 51.605 254.939 51.845C255.309 52.085 255.724 52.205 256.184 52.205C256.544 52.205 256.924 52.13 257.324 51.98C257.724 51.83 258.139 51.605 258.569 51.305L258.989 51.965C258.469 52.365 257.949 52.66 257.429 52.85C256.909 53.04 256.404 53.135 255.914 53.135ZM268.171 44.945C269.271 44.945 270.131 45.29 270.751 45.98C271.381 46.67 271.696 47.645 271.696 48.905C271.696 49.755 271.541 50.5 271.231 51.14C270.931 51.77 270.501 52.26 269.941 52.61C269.381 52.96 268.706 53.135 267.916 53.135C266.836 53.135 265.991 52.8 265.381 52.13C264.771 51.45 264.466 50.475 264.466 49.205C264.466 48.325 264.611 47.57 264.901 46.94C265.201 46.3 265.626 45.81 266.176 45.47C266.736 45.12 267.401 44.945 268.171 44.945ZM268.111 45.83C267.341 45.83 266.751 46.12 266.341 46.7C265.931 47.28 265.726 48.095 265.726 49.145C265.726 50.175 265.921 50.95 266.311 51.47C266.701 51.99 267.261 52.25 267.991 52.25C268.521 52.25 268.966 52.12 269.326 51.86C269.696 51.59 269.971 51.21 270.151 50.72C270.341 50.23 270.436 49.645 270.436 48.965C270.436 47.945 270.231 47.17 269.821 46.64C269.421 46.1 268.851 45.83 268.111 45.83ZM279.829 45.08H281.329C281.969 45.08 282.509 45.145 282.949 45.275C283.389 45.405 283.719 45.61 283.939 45.89C284.169 46.16 284.284 46.52 284.284 46.97C284.284 47.38 284.184 47.72 283.984 47.99C283.794 48.26 283.509 48.47 283.129 48.62C282.749 48.76 282.269 48.855 281.689 48.905L281.749 48.785C282.199 48.785 282.599 48.825 282.949 48.905C283.299 48.985 283.599 49.11 283.849 49.28C284.109 49.45 284.304 49.665 284.434 49.925C284.574 50.175 284.644 50.485 284.644 50.855C284.644 51.575 284.364 52.115 283.804 52.475C283.254 52.825 282.389 53 281.209 53H277.459V52.355L278.764 52.07L278.629 52.235V45.905L278.749 46.04L277.459 45.77V45.125L279.829 45.08ZM281.089 45.905H279.619L279.829 45.695V48.71L279.619 48.53H280.714C281.554 48.53 282.159 48.415 282.529 48.185C282.899 47.955 283.084 47.61 283.084 47.15C283.084 46.7 282.919 46.38 282.589 46.19C282.259 46 281.759 45.905 281.089 45.905ZM281.074 52.16C281.884 52.16 282.469 52.05 282.829 51.83C283.199 51.61 283.384 51.245 283.384 50.735C283.384 50.245 283.219 49.87 282.889 49.61C282.569 49.35 282.064 49.22 281.374 49.22H279.619L279.829 49.025V52.355L279.619 52.16H281.074Z" fill="#C7C6BE"/>
<defs>
<filter id="filter0_d_438_37" x="0" y="20" width="22" height="22" filterUnits="userSpaceOnUse" color-interpolation-filters="sRGB">
<feFlood flood-opacity="0" result="BackgroundImageFix"/>
<feColorMatrix in="SourceAlpha" type="matrix" values="0 0 0 0 0 0 0 0 0 0 0 0 0 0 0 0 0 0 127 0" result="hardAlpha"/>
<feOffset dy="4"/>
<feGaussianBlur stdDeviation="3.5"/>
<feComposite in2="hardAlpha" operator="out"/>
<feColorMatrix type="matrix" values="0 0 0 0 0.958333 0 0 0 0 0.817888 0 0 0 0 0.415278 0 0 0 0.25 0"/>
<feBlend mode="normal" in2="BackgroundImageFix" result="effect1_dropShadow_438_37"/>
<feBlend mode="normal" in="SourceGraphic" in2="effect1_dropShadow_438_37" result="shape"/>
</filter>
<filter id="filter1_d_438_37" x="0" y="31" width="22" height="22" filterUnits="userSpaceOnUse" color-interpolation-filters="sRGB">
<feFlood flood-opacity="0" result="BackgroundImageFix"/>
<feColorMatrix in="SourceAlpha" type="matrix" values="0 0 0 0 0 0 0 0 0 0 0 0 0 0 0 0 0 0 127 0" result="hardAlpha"/>
<feOffset dy="4"/>
<feGaussianBlur stdDeviation="3.5"/>
<feComposite in2="hardAlpha" operator="out"/>
<feColorMatrix type="matrix" values="0 0 0 0 0.958333 0 0 0 0 0.817888 0 0 0 0 0.415278 0 0 0 0.25 0"/>
<feBlend mode="normal" in2="BackgroundImageFix" result="effect1_dropShadow_438_37"/>
<feBlend mode="normal" in="SourceGraphic" in2="effect1_dropShadow_438_37" result="shape"/>
</filter>
<filter id="filter2_d_438_37" x="0" y="42" width="22" height="22" filterUnits="userSpaceOnUse" color-interpolation-filters="sRGB">
<feFlood flood-opacity="0" result="BackgroundImageFix"/>
<feColorMatrix in="SourceAlpha" type="matrix" values="0 0 0 0 0 0 0 0 0 0 0 0 0 0 0 0 0 0 127 0" result="hardAlpha"/>
<feOffset dy="4"/>
<feGaussianBlur stdDeviation="3.5"/>
<feComposite in2="hardAlpha" operator="out"/>
<feColorMatrix type="matrix" values="0 0 0 0 0.958333 0 0 0 0 0.817888 0 0 0 0 0.415278 0 0 0 0.25 0"/>
<feBlend mode="normal" in2="BackgroundImageFix" result="effect1_dropShadow_438_37"/>
<feBlend mode="normal" in="SourceGraphic" in2="effect1_dropShadow_438_37" result="shape"/>
</filter>
<filter id="filter3_d_438_37" x="12" y="20" width="22" height="22" filterUnits="userSpaceOnUse" color-interpolation-filters="sRGB">
<feFlood flood-opacity="0" result="BackgroundImageFix"/>
<feColorMatrix in="SourceAlpha" type="matrix" values="0 0 0 0 0 0 0 0 0 0 0 0 0 0 0 0 0 0 127 0" result="hardAlpha"/>
<feOffset dy="4"/>
<feGaussianBlur stdDeviation="3.5"/>
<feComposite in2="hardAlpha" operator="out"/>
<feColorMatrix type="matrix" values="0 0 0 0 0.958333 0 0 0 0 0.817888 0 0 0 0 0.415278 0 0 0 0.25 0"/>
<feBlend mode="normal" in2="BackgroundImageFix" result="effect1_dropShadow_438_37"/>
<feBlend mode="normal" in="SourceGraphic" in2="effect1_dropShadow_438_37" result="shape"/>
</filter>
<filter id="filter4_d_438_37" x="12" y="31" width="22" height="22" filterUnits="userSpaceOnUse" color-interpolation-filters="sRGB">
<feFlood flood-opacity="0" result="BackgroundImageFix"/>
<feColorMatrix in="SourceAlpha" type="matrix" values="0 0 0 0 0 0 0 0 0 0 0 0 0 0 0 0 0 0 127 0" result="hardAlpha"/>
<feOffset dy="4"/>
<feGaussianBlur stdDeviation="3.5"/>
<feComposite in2="hardAlpha" operator="out"/>
<feColorMatrix type="matrix" values="0 0 0 0 0.958333 0 0 0 0 0.817888 0 0 0 0 0.415278 0 0 0 0.25 0"/>
<feBlend mode="normal" in2="BackgroundImageFix" result="effect1_dropShadow_438_37"/>
<feBlend mode="normal" in="SourceGraphic" in2="effect1_dropShadow_438_37" result="shape"/>
</filter>
<filter id="filter5_d_438_37" x="12" y="42" width="22" height="22" filterUnits="userSpaceOnUse" color-interpolation-filters="sRGB">
<feFlood flood-opacity="0" result="BackgroundImageFix"/>
<feColorMatrix in="SourceAlpha" type="matrix" values="0 0 0 0 0 0 0 0 0 0 0 0 0 0 0 0 0 0 127 0" result="hardAlpha"/>
<feOffset dy="4"/>
<feGaussianBlur stdDeviation="3.5"/>
<feComposite in2="hardAlpha" operator="out"/>
<feColorMatrix type="matrix" values="0 0 0 0 0.958333 0 0 0 0 0.817888 0 0 0 0 0.415278 0 0 0 0.25 0"/>
<feBlend mode="normal" in2="BackgroundImageFix" result="effect1_dropShadow_438_37"/>
<feBlend mode="normal" in="SourceGraphic" in2="effect1_dropShadow_438_37" result="shape"/>
</filter>
<filter id="filter6_d_438_37" x="24" y="20" width="22" height="22" filterUnits="userSpaceOnUse" color-interpolation-filters="sRGB">
<feFlood flood-opacity="0" result="BackgroundImageFix"/>
<feColorMatrix in="SourceAlpha" type="matrix" values="0 0 0 0 0 0 0 0 0 0 0 0 0 0 0 0 0 0 127 0" result="hardAlpha"/>
<feOffset dy="4"/>
<feGaussianBlur stdDeviation="3.5"/>
<feComposite in2="hardAlpha" operator="out"/>
<feColorMatrix type="matrix" values="0 0 0 0 0.958333 0 0 0 0 0.817888 0 0 0 0 0.415278 0 0 0 0.25 0"/>
<feBlend mode="normal" in2="BackgroundImageFix" result="effect1_dropShadow_438_37"/>
<feBlend mode="normal" in="SourceGraphic" in2="effect1_dropShadow_438_37" result="shape"/>
</filter>
<filter id="filter7_d_438_37" x="24" y="31" width="22" height="22" filterUnits="userSpaceOnUse" color-interpolation-filters="sRGB">
<feFlood flood-opacity="0" result="BackgroundImageFix"/>
<feColorMatrix in="SourceAlpha" type="matrix" values="0 0 0 0 0 0 0 0 0 0 0 0 0 0 0 0 0 0 127 0" result="hardAlpha"/>
<feOffset dy="4"/>
<feGaussianBlur stdDeviation="3.5"/>
<feComposite in2="hardAlpha" operator="out"/>
<feColorMatrix type="matrix" values="0 0 0 0 0.958333 0 0 0 0 0.817888 0 0 0 0 0.415278 0 0 0 0.25 0"/>
<feBlend mode="normal" in2="BackgroundImageFix" result="effect1_dropShadow_438_37"/>
<feBlend mode="normal" in="SourceGraphic" in2="effect1_dropShadow_438_37" result="shape"/>
</filter>
<filter id="filter8_d_438_37" x="24" y="42" width="22" height="22" filterUnits="userSpaceOnUse" color-interpolation-filters="sRGB">
<feFlood flood-opacity="0" result="BackgroundImageFix"/>
<feColorMatrix in="SourceAlpha" type="matrix" values="0 0 0 0 0 0 0 0 0 0 0 0 0 0 0 0 0 0 127 0" result="hardAlpha"/>
<feOffset dy="4"/>
<feGaussianBlur stdDeviation="3.5"/>
<feComposite in2="hardAlpha" operator="out"/>
<feColorMatrix type="matrix" values="0 0 0 0 0.958333 0 0 0 0 0.817888 0 0 0 0 0.415278 0 0 0 0.25 0"/>
<feBlend mode="normal" in2="BackgroundImageFix" result="effect1_dropShadow_438_37"/>
<feBlend mode="normal" in="SourceGraphic" in2="effect1_dropShadow_438_37" result="shape"/>
</filter>
</defs>
</svg>
